<?xml version="1.0" encoding="UTF-8"?>
<svg xmlns="http://www.w3.org/2000/svg" xmlns:xlink="http://www.w3.org/1999/xlink" width="64pt" height="64pt" viewBox="0 0 64 64" version="1.1">
<g id="surface1">
<path style=" stroke:none;fill-rule:evenodd;fill:rgb(0%,0%,0%);fill-opacity:1;" d="M 0.976562 5.613281 C 0.742188 5.660156 0.386719 6.019531 0.316406 6.285156 C 0.269531 6.460938 0.21875 6.527344 0.125 6.527344 C 0 6.527344 0 6.738281 0 31.984375 L 0 57.441406 L 0.140625 57.503906 C 0.21875 57.539062 0.304688 57.65625 0.332031 57.761719 C 0.359375 57.867188 0.492188 58.0625 0.632812 58.191406 L 0.882812 58.433594 L 63.140625 58.433594 L 63.402344 58.160156 C 63.546875 58.011719 63.683594 57.804688 63.707031 57.707031 C 63.730469 57.601562 63.804688 57.507812 63.875 57.488281 C 64 57.457031 64 57.207031 64 32.050781 L 64 6.640625 L 63.839844 6.515625 C 63.753906 6.449219 63.679688 6.324219 63.679688 6.246094 C 63.679688 6.15625 63.574219 6.003906 63.410156 5.851562 L 63.140625 5.601562 L 32.128906 5.59375 C 15.074219 5.589844 1.054688 5.597656 0.976562 5.613281 M 61.34375 7.929688 L 61.535156 7.96875 L 61.550781 11.984375 L 61.570312 16.003906 L 61.40625 16.066406 C 61.179688 16.152344 2.820312 16.152344 2.59375 16.066406 L 2.429688 16.003906 L 2.449219 11.984375 L 2.464844 7.96875 L 2.6875 7.929688 C 2.984375 7.875 61.097656 7.875 61.34375 7.929688 M 6.109375 11.03125 C 5.75 11.285156 5.648438 11.421875 5.601562 11.691406 C 5.542969 12.058594 5.621094 12.671875 5.730469 12.671875 C 5.777344 12.671875 5.832031 12.722656 5.855469 12.785156 C 5.96875 13.117188 7.027344 13.304688 7.183594 13.023438 C 7.214844 12.972656 7.28125 12.929688 7.332031 12.929688 C 7.382812 12.929688 7.425781 12.882812 7.425781 12.824219 C 7.425781 12.769531 7.480469 12.707031 7.550781 12.691406 C 7.632812 12.667969 7.679688 12.601562 7.679688 12.515625 C 7.679688 12.441406 7.722656 12.320312 7.773438 12.253906 C 7.824219 12.183594 7.867188 12.070312 7.867188 12 C 7.867188 11.929688 7.824219 11.816406 7.773438 11.746094 C 7.722656 11.679688 7.679688 11.582031 7.679688 11.535156 C 7.679688 11.429688 7.335938 11.070312 7.238281 11.070312 C 7.199219 11.070312 7.167969 11.027344 7.167969 10.976562 C 7.167969 10.8125 6.355469 10.855469 6.109375 11.03125 M 11.542969 10.976562 C 11.523438 11.027344 11.472656 11.070312 11.429688 11.070312 C 11.335938 11.070312 11.070312 11.339844 11.070312 11.4375 C 11.070312 11.476562 11.027344 11.523438 10.976562 11.542969 C 10.65625 11.664062 10.953125 12.671875 11.386719 12.933594 C 11.488281 12.996094 11.589844 13.078125 11.613281 13.113281 C 11.699219 13.25 12.355469 13.199219 12.519531 13.039062 C 13.183594 12.402344 13.183594 12.398438 13.183594 12.011719 C 13.183594 11.816406 13.152344 11.636719 13.113281 11.613281 C 13.078125 11.589844 12.996094 11.488281 12.933594 11.386719 C 12.671875 10.953125 11.664062 10.65625 11.542969 10.976562 M 16.855469 10.976562 C 16.835938 11.027344 16.789062 11.070312 16.753906 11.070312 C 16.636719 11.070312 16.367188 11.410156 16.308594 11.628906 C 16.277344 11.746094 16.222656 11.839844 16.1875 11.839844 C 16.089844 11.839844 16.117188 12.136719 16.222656 12.222656 C 16.277344 12.269531 16.320312 12.351562 16.320312 12.414062 C 16.320312 12.523438 16.644531 12.929688 16.734375 12.929688 C 16.761719 12.929688 16.820312 12.976562 16.863281 13.035156 C 16.976562 13.1875 17.605469 13.230469 17.742188 13.09375 C 17.800781 13.039062 17.921875 12.964844 18.011719 12.929688 C 18.101562 12.894531 18.175781 12.824219 18.175781 12.769531 C 18.175781 12.714844 18.21875 12.671875 18.269531 12.671875 C 18.476562 12.671875 18.488281 11.511719 18.285156 11.359375 C 18.222656 11.316406 18.175781 11.25 18.175781 11.207031 C 18.175781 11.167969 18.140625 11.136719 18.097656 11.132812 C 18.050781 11.132812 17.945312 11.078125 17.855469 11.007812 C 17.648438 10.847656 16.914062 10.824219 16.855469 10.976562 M 61.441406 18.558594 C 61.566406 18.6875 61.566406 18.773438 61.566406 37.34375 L 61.566406 56.003906 L 61.402344 56.066406 C 61.179688 56.152344 2.820312 56.152344 2.597656 56.066406 L 2.433594 56.003906 L 2.433594 37.34375 C 2.433594 18.773438 2.433594 18.6875 2.558594 18.558594 C 2.761719 18.359375 61.238281 18.359375 61.441406 18.558594 M 46.335938 34.101562 C 46.335938 34.253906 46.285156 34.414062 46.207031 34.511719 C 46.128906 34.613281 46.078125 34.773438 46.078125 34.929688 C 46.078125 35.070312 46.039062 35.21875 45.992188 35.257812 C 45.945312 35.296875 45.886719 35.472656 45.863281 35.640625 C 45.839844 35.8125 45.78125 35.988281 45.734375 36.027344 C 45.6875 36.066406 45.628906 36.238281 45.605469 36.410156 C 45.585938 36.582031 45.527344 36.753906 45.480469 36.792969 C 45.433594 36.832031 45.375 37.015625 45.355469 37.199219 C 45.332031 37.386719 45.269531 37.566406 45.21875 37.605469 C 45.160156 37.648438 45.121094 37.777344 45.121094 37.933594 C 45.121094 38.09375 45.070312 38.253906 44.992188 38.351562 C 44.921875 38.445312 44.863281 38.613281 44.863281 38.738281 C 44.863281 38.863281 44.808594 39.03125 44.734375 39.121094 C 44.65625 39.222656 44.609375 39.382812 44.609375 39.546875 C 44.609375 39.722656 44.566406 39.851562 44.480469 39.9375 C 44.390625 40.027344 44.351562 40.148438 44.351562 40.351562 C 44.351562 40.5625 44.316406 40.671875 44.222656 40.75 C 44.136719 40.828125 44.097656 40.941406 44.09375 41.117188 C 44.09375 41.269531 44.042969 41.457031 43.96875 41.566406 C 43.898438 41.671875 43.839844 41.859375 43.839844 41.980469 C 43.839844 42.097656 43.792969 42.25 43.738281 42.308594 C 43.683594 42.371094 43.621094 42.546875 43.601562 42.699219 C 43.582031 42.851562 43.523438 43.023438 43.472656 43.085938 C 43.417969 43.144531 43.363281 43.332031 43.34375 43.5 C 43.328125 43.671875 43.277344 43.835938 43.234375 43.871094 C 43.191406 43.90625 43.136719 44.078125 43.113281 44.25 C 43.089844 44.425781 43.03125 44.613281 42.984375 44.667969 C 42.933594 44.722656 42.875 44.902344 42.851562 45.066406 C 42.828125 45.230469 42.769531 45.398438 42.71875 45.441406 C 42.664062 45.484375 42.625 45.628906 42.625 45.769531 L 42.625 46.015625 L 43.519531 46.015625 C 44.277344 46.015625 44.414062 46 44.414062 45.917969 C 44.414062 45.867188 44.472656 45.773438 44.542969 45.714844 C 44.636719 45.632812 44.671875 45.523438 44.671875 45.300781 C 44.671875 45.097656 44.703125 44.980469 44.765625 44.945312 C 44.820312 44.914062 44.878906 44.753906 44.902344 44.574219 C 44.925781 44.398438 44.988281 44.207031 45.039062 44.148438 C 45.089844 44.089844 45.148438 43.917969 45.167969 43.765625 C 45.1875 43.613281 45.238281 43.429688 45.28125 43.359375 C 45.328125 43.289062 45.382812 43.097656 45.402344 42.933594 C 45.425781 42.769531 45.484375 42.601562 45.53125 42.5625 C 45.578125 42.527344 45.632812 42.351562 45.65625 42.179688 C 45.679688 42.011719 45.738281 41.835938 45.785156 41.796875 C 45.835938 41.757812 45.894531 41.566406 45.917969 41.375 C 45.941406 41.183594 46 41.003906 46.042969 40.976562 C 46.089844 40.949219 46.140625 40.785156 46.160156 40.613281 C 46.179688 40.429688 46.238281 40.265625 46.296875 40.222656 C 46.363281 40.171875 46.398438 40.050781 46.398438 39.882812 C 46.398438 39.703125 46.441406 39.574219 46.527344 39.488281 C 46.613281 39.402344 46.65625 39.273438 46.65625 39.109375 C 46.65625 38.796875 46.707031 38.65625 46.824219 38.65625 C 46.886719 38.65625 46.910156 38.566406 46.910156 38.347656 C 46.910156 38.117188 46.945312 38.003906 47.039062 37.921875 C 47.128906 37.839844 47.167969 37.722656 47.167969 37.542969 C 47.167969 37.386719 47.222656 37.199219 47.296875 37.089844 C 47.367188 36.980469 47.421875 36.792969 47.421875 36.664062 C 47.425781 36.53125 47.476562 36.363281 47.550781 36.269531 C 47.628906 36.171875 47.679688 36.011719 47.679688 35.855469 C 47.679688 35.683594 47.722656 35.566406 47.808594 35.488281 C 47.898438 35.40625 47.9375 35.289062 47.9375 35.097656 C 47.9375 34.949219 47.976562 34.785156 48.023438 34.738281 C 48.070312 34.691406 48.128906 34.511719 48.15625 34.335938 C 48.183594 34.164062 48.25 33.984375 48.308594 33.941406 C 48.398438 33.875 48.226562 33.859375 47.375 33.859375 L 46.335938 33.855469 L 46.335938 34.101562 M 53.847656 34.03125 C 53.828125 34.128906 53.773438 34.238281 53.730469 34.273438 C 53.6875 34.308594 53.632812 34.480469 53.609375 34.65625 C 53.585938 34.832031 53.527344 35.003906 53.480469 35.039062 C 53.433594 35.074219 53.375 35.265625 53.347656 35.46875 C 53.320312 35.691406 53.269531 35.84375 53.210938 35.863281 C 53.152344 35.886719 53.121094 35.996094 53.121094 36.179688 C 53.121094 36.367188 53.074219 36.519531 52.992188 36.625 C 52.921875 36.714844 52.863281 36.875 52.863281 36.984375 C 52.863281 37.199219 52.746094 37.503906 52.660156 37.503906 C 52.632812 37.503906 52.609375 37.632812 52.609375 37.792969 C 52.609375 37.996094 52.570312 38.117188 52.480469 38.207031 C 52.394531 38.292969 52.351562 38.421875 52.351562 38.59375 C 52.351562 38.761719 52.308594 38.890625 52.222656 38.976562 C 52.132812 39.066406 52.097656 39.1875 52.097656 39.386719 C 52.097656 39.5625 52.054688 39.710938 51.992188 39.773438 C 51.933594 39.832031 51.875 40.015625 51.855469 40.179688 C 51.839844 40.34375 51.78125 40.515625 51.730469 40.554688 C 51.675781 40.597656 51.617188 40.769531 51.601562 40.941406 C 51.582031 41.109375 51.53125 41.28125 51.480469 41.320312 C 51.433594 41.359375 51.375 41.53125 51.351562 41.703125 C 51.328125 41.875 51.273438 42.058594 51.230469 42.113281 C 51.1875 42.164062 51.136719 42.351562 51.113281 42.523438 C 51.089844 42.695312 51.03125 42.882812 50.984375 42.9375 C 50.933594 42.996094 50.875 43.175781 50.851562 43.34375 C 50.828125 43.511719 50.769531 43.683594 50.726562 43.730469 C 50.679688 43.773438 50.628906 43.953125 50.609375 44.125 C 50.589844 44.304688 50.527344 44.472656 50.46875 44.515625 C 50.40625 44.5625 50.367188 44.6875 50.367188 44.855469 C 50.367188 45.035156 50.328125 45.160156 50.238281 45.246094 C 50.144531 45.34375 50.113281 45.460938 50.113281 45.695312 L 50.113281 46.015625 L 51.902344 46.015625 L 51.902344 45.863281 C 51.902344 45.78125 51.960938 45.640625 52.03125 45.550781 C 52.113281 45.449219 52.160156 45.289062 52.160156 45.125 C 52.160156 44.949219 52.203125 44.820312 52.289062 44.734375 C 52.375 44.652344 52.414062 44.523438 52.414062 44.351562 C 52.414062 44.175781 52.457031 44.0625 52.542969 43.984375 C 52.636719 43.90625 52.671875 43.796875 52.671875 43.589844 C 52.671875 43.421875 52.710938 43.261719 52.773438 43.195312 C 52.828125 43.132812 52.890625 42.957031 52.910156 42.804688 C 52.929688 42.652344 52.984375 42.480469 53.035156 42.425781 C 53.085938 42.367188 53.148438 42.171875 53.175781 41.996094 C 53.203125 41.816406 53.257812 41.632812 53.292969 41.585938 C 53.332031 41.542969 53.378906 41.367188 53.402344 41.199219 C 53.429688 41.035156 53.484375 40.859375 53.53125 40.8125 C 53.578125 40.765625 53.636719 40.578125 53.664062 40.390625 C 53.6875 40.207031 53.746094 40.039062 53.792969 40.023438 C 53.835938 40.003906 53.894531 39.832031 53.917969 39.640625 C 53.945312 39.429688 54 39.273438 54.054688 39.253906 C 54.113281 39.230469 54.144531 39.121094 54.144531 38.9375 C 54.144531 38.742188 54.183594 38.617188 54.273438 38.527344 C 54.355469 38.445312 54.398438 38.316406 54.398438 38.152344 C 54.398438 38.003906 54.449219 37.839844 54.527344 37.742188 C 54.609375 37.640625 54.65625 37.484375 54.65625 37.316406 C 54.65625 37.132812 54.695312 37.023438 54.785156 36.945312 C 54.875 36.867188 54.910156 36.757812 54.910156 36.5625 C 54.910156 36.367188 54.949219 36.253906 55.039062 36.175781 C 55.132812 36.097656 55.167969 35.988281 55.167969 35.78125 C 55.167969 35.617188 55.207031 35.453125 55.265625 35.390625 C 55.320312 35.328125 55.386719 35.136719 55.414062 34.964844 C 55.441406 34.789062 55.515625 34.578125 55.574219 34.492188 C 55.632812 34.410156 55.679688 34.230469 55.679688 34.097656 L 55.679688 33.855469 L 53.890625 33.855469 L 53.847656 34.03125 M 8.128906 40 L 8.128906 45.886719 L 10.355469 45.886719 L 10.378906 42.972656 C 10.398438 40.402344 10.410156 40.042969 10.5 39.980469 C 10.558594 39.9375 10.644531 39.816406 10.695312 39.710938 C 10.746094 39.605469 10.871094 39.480469 10.976562 39.429688 C 11.082031 39.378906 11.207031 39.300781 11.253906 39.253906 C 11.402344 39.105469 12.433594 39.136719 12.574219 39.296875 C 12.640625 39.367188 12.714844 39.425781 12.742188 39.425781 C 12.828125 39.425781 13.121094 39.722656 13.121094 39.808594 C 13.121094 39.851562 13.171875 39.925781 13.230469 39.972656 C 13.335938 40.046875 13.34375 40.277344 13.363281 42.972656 L 13.382812 45.886719 L 15.5 45.886719 L 15.480469 42.53125 L 15.457031 39.175781 L 15.3125 39.042969 C 15.234375 38.96875 15.167969 38.84375 15.167969 38.765625 C 15.167969 38.6875 15.109375 38.585938 15.039062 38.542969 C 14.96875 38.5 14.910156 38.433594 14.910156 38.394531 C 14.910156 38.304688 14.394531 37.824219 14.296875 37.824219 C 14.253906 37.824219 14.207031 37.78125 14.1875 37.734375 C 14.167969 37.683594 14.019531 37.621094 13.863281 37.597656 C 13.703125 37.574219 13.539062 37.515625 13.5 37.464844 C 13.390625 37.335938 12.0625 37.335938 12.011719 37.464844 C 11.992188 37.515625 11.835938 37.574219 11.652344 37.597656 C 11.4375 37.628906 11.328125 37.675781 11.328125 37.734375 C 11.328125 37.785156 11.289062 37.824219 11.246094 37.824219 C 11.199219 37.824219 11.039062 37.945312 10.890625 38.09375 C 10.417969 38.5625 10.402344 38.511719 10.378906 36.125 L 10.359375 34.113281 L 8.128906 34.113281 L 8.128906 40 M 17.9375 35.058594 C 17.882812 35.09375 17.855469 35.449219 17.839844 36.324219 L 17.824219 37.535156 L 17.082031 37.652344 L 17.121094 38.933594 L 17.375 39.015625 C 17.515625 39.0625 17.683594 39.117188 17.742188 39.140625 C 17.847656 39.179688 17.855469 39.355469 17.855469 41.554688 C 17.855469 43.570312 17.871094 43.941406 17.953125 44.03125 C 18.003906 44.089844 18.066406 44.316406 18.089844 44.53125 C 18.117188 44.800781 18.15625 44.929688 18.214844 44.929688 C 18.261719 44.929688 18.316406 44.992188 18.339844 45.074219 C 18.359375 45.152344 18.472656 45.285156 18.59375 45.367188 C 18.714844 45.453125 18.816406 45.542969 18.816406 45.570312 C 18.816406 45.597656 18.894531 45.636719 18.992188 45.660156 C 19.089844 45.6875 19.210938 45.742188 19.265625 45.789062 C 19.378906 45.886719 20.671875 45.980469 21.089844 45.917969 L 21.375 45.875 L 21.375 45.082031 C 21.375 44.347656 21.367188 44.289062 21.253906 44.289062 C 21.191406 44.289062 21.101562 44.246094 21.054688 44.191406 C 21.003906 44.132812 20.863281 44.097656 20.667969 44.097656 C 20.3125 44.097656 20.160156 43.980469 20.160156 43.710938 C 20.160156 43.609375 20.132812 43.507812 20.097656 43.488281 C 20.054688 43.460938 20.03125 42.691406 20.03125 41.382812 L 20.03125 39.320312 L 20.207031 39.167969 C 20.347656 39.046875 20.472656 39.011719 20.878906 38.988281 L 21.375 38.960938 L 21.375 37.632812 L 20.910156 37.632812 C 20.324219 37.628906 20.160156 37.585938 20.160156 37.433594 C 20.160156 37.367188 20.132812 37.3125 20.097656 37.3125 C 20.054688 37.3125 20.03125 36.910156 20.03125 36.238281 C 20.03125 35.484375 20.007812 35.136719 19.957031 35.085938 C 19.867188 34.996094 18.070312 34.976562 17.9375 35.058594 M 23.566406 35.085938 C 23.511719 35.136719 23.488281 35.476562 23.488281 36.199219 C 23.488281 36.824219 23.460938 37.257812 23.425781 37.28125 C 23.390625 37.300781 23.359375 37.371094 23.359375 37.4375 C 23.359375 37.566406 23.191406 37.628906 22.828125 37.632812 L 22.585938 37.632812 L 22.605469 38.285156 L 22.625 38.941406 L 22.910156 38.996094 C 23.484375 39.109375 23.488281 39.121094 23.488281 41.214844 C 23.488281 43.328125 23.578125 44.5625 23.753906 44.792969 C 23.820312 44.875 23.871094 44.984375 23.871094 45.027344 C 23.871094 45.136719 24.152344 45.441406 24.246094 45.441406 C 24.289062 45.441406 24.320312 45.480469 24.320312 45.527344 C 24.320312 45.578125 24.417969 45.636719 24.546875 45.660156 C 24.671875 45.683594 24.789062 45.742188 24.808594 45.785156 C 24.84375 45.886719 26.210938 45.984375 26.660156 45.917969 L 26.949219 45.871094 L 26.910156 44.332031 L 26.71875 44.21875 C 26.613281 44.15625 26.40625 44.101562 26.257812 44.101562 C 26.074219 44.097656 25.933594 44.050781 25.824219 43.957031 L 25.664062 43.816406 L 25.664062 39.199219 L 25.871094 39.105469 C 25.988281 39.050781 26.265625 38.996094 26.496094 38.976562 L 26.910156 38.945312 L 26.949219 37.648438 L 26.378906 37.617188 C 25.605469 37.574219 25.664062 37.679688 25.664062 36.292969 C 25.664062 35.25 25.648438 35.082031 25.5625 35.046875 C 25.367188 34.972656 23.644531 35.003906 23.566406 35.085938 M 32.710938 37.464844 C 32.667969 37.515625 32.507812 37.574219 32.355469 37.597656 C 32.203125 37.621094 32.058594 37.675781 32.042969 37.726562 C 32.023438 37.773438 31.921875 37.832031 31.8125 37.855469 C 31.703125 37.878906 31.617188 37.9375 31.617188 37.980469 C 31.617188 38.367188 31.023438 38.328125 30.949219 37.9375 L 30.890625 37.632812 L 28.863281 37.632812 L 28.863281 49.152344 L 30.910156 49.152344 L 30.910156 47.269531 C 30.910156 45.640625 30.925781 45.371094 31.011719 45.285156 C 31.171875 45.125 31.394531 45.164062 31.632812 45.390625 C 32.078125 45.816406 32.203125 45.875 32.886719 45.957031 C 33.59375 46.042969 34.554688 45.957031 34.753906 45.792969 C 34.804688 45.746094 34.917969 45.691406 35 45.664062 C 35.179688 45.609375 35.902344 44.898438 35.902344 44.777344 C 35.902344 44.734375 35.960938 44.632812 36.03125 44.558594 C 36.101562 44.484375 36.160156 44.351562 36.160156 44.265625 C 36.160156 44.046875 36.222656 43.902344 36.316406 43.902344 C 36.527344 43.902344 36.492188 39.738281 36.277344 39.535156 C 36.203125 39.460938 36.160156 39.328125 36.160156 39.164062 C 36.160156 39 36.125 38.894531 36.066406 38.871094 C 36.015625 38.851562 35.953125 38.777344 35.933594 38.707031 C 35.910156 38.636719 35.835938 38.515625 35.769531 38.441406 C 35.703125 38.367188 35.609375 38.261719 35.5625 38.207031 C 35.421875 38.046875 35.113281 37.824219 35.03125 37.824219 C 34.992188 37.824219 34.941406 37.78125 34.921875 37.734375 C 34.902344 37.683594 34.757812 37.621094 34.597656 37.597656 C 34.4375 37.574219 34.273438 37.515625 34.234375 37.464844 C 34.179688 37.398438 33.980469 37.375 33.472656 37.375 C 32.960938 37.375 32.765625 37.398438 32.710938 37.464844 M 38.351562 38.640625 L 38.367188 39.648438 L 40.480469 39.648438 L 40.496094 38.640625 L 40.515625 37.632812 L 38.332031 37.632812 L 38.351562 38.640625 M 33.519531 39.296875 C 33.578125 39.367188 33.667969 39.425781 33.710938 39.425781 C 33.757812 39.425781 33.816406 39.472656 33.835938 39.535156 C 33.859375 39.597656 33.933594 39.6875 33.996094 39.730469 C 34.058594 39.777344 34.113281 39.890625 34.113281 39.984375 C 34.113281 40.074219 34.164062 40.207031 34.222656 40.273438 C 34.324219 40.382812 34.335938 40.550781 34.335938 41.695312 C 34.335938 42.84375 34.324219 43.007812 34.222656 43.117188 C 34.164062 43.1875 34.113281 43.316406 34.113281 43.40625 C 34.113281 43.59375 33.675781 44.097656 33.511719 44.097656 C 33.453125 44.097656 33.351562 44.152344 33.28125 44.222656 C 33.175781 44.328125 33.066406 44.351562 32.671875 44.351562 C 32.277344 44.351562 32.167969 44.328125 32.0625 44.222656 C 31.992188 44.152344 31.894531 44.097656 31.84375 44.097656 C 31.746094 44.097656 31.425781 43.808594 31.425781 43.71875 C 31.425781 43.691406 31.367188 43.617188 31.296875 43.550781 C 31.199219 43.464844 31.167969 43.355469 31.167969 43.113281 C 31.167969 42.898438 31.132812 42.753906 31.054688 42.671875 C 30.960938 42.566406 30.945312 42.414062 30.945312 41.695312 C 30.945312 40.976562 30.960938 40.828125 31.054688 40.722656 C 31.128906 40.640625 31.167969 40.496094 31.167969 40.308594 C 31.167969 40.113281 31.207031 39.972656 31.296875 39.871094 C 31.367188 39.789062 31.425781 39.6875 31.425781 39.640625 C 31.425781 39.242188 33.21875 38.945312 33.519531 39.296875 M 38.414062 43.851562 C 38.359375 43.90625 38.335938 44.234375 38.335938 44.910156 L 38.335938 45.886719 L 40.511719 45.886719 L 40.511719 44.871094 C 40.511719 44.003906 40.496094 43.847656 40.410156 43.816406 C 40.214844 43.738281 38.492188 43.773438 38.414062 43.851562 "/>
</g>
</svg>
